<svg id="visual" viewBox="0 0 1920 1080" width="1920" height="1080" xmlns="http://www.w3.org/2000/svg" xmlns:xlink="http://www.w3.org/1999/xlink" version="1.1"><rect x="0" y="0" width="1920" height="1080" fill="#333333"></rect><path d="M0 759L274 657L549 692L823 636L1097 748L1371 746L1646 691L1920 743L1920 1081L1646 1081L1371 1081L1097 1081L823 1081L549 1081L274 1081L0 1081Z" fill="#b6b6b6"></path><path d="M0 810L274 825L549 775L823 780L1097 745L1371 739L1646 837L1920 754L1920 1081L1646 1081L1371 1081L1097 1081L823 1081L549 1081L274 1081L0 1081Z" fill="#9a9a9a"></path><path d="M0 916L274 892L549 795L823 890L1097 821L1371 802L1646 790L1920 880L1920 1081L1646 1081L1371 1081L1097 1081L823 1081L549 1081L274 1081L0 1081Z" fill="#7e7e7e"></path><path d="M0 971L274 906L549 977L823 948L1097 975L1371 948L1646 887L1920 872L1920 1081L1646 1081L1371 1081L1097 1081L823 1081L549 1081L274 1081L0 1081Z" fill="#646464"></path><path d="M0 960L274 966L549 959L823 959L1097 967L1371 1000L1646 952L1920 1030L1920 1081L1646 1081L1371 1081L1097 1081L823 1081L549 1081L274 1081L0 1081Z" fill="#4b4b4b"></path></svg>